<?xml version="1.0" encoding="utf-8"?>
<svg xmlns="http://www.w3.org/2000/svg" xmlns:xlink="http://www.w3.org/1999/xlink" xml:space="preserve" width="984" height="984" viewBox="0 0 984 984"><rect width="984" height="984" fill="#fbe7f3" x="0" y="0"/><g fill="#dc2625">
<g transform="translate(240,48) scale(4.12)"><path d="M4.7,0.4c-1.1,0.4-2.4,0.4-3.5,0L0,0c0,3.3,2.7,6,6,6V0L4.7,0.4z"/></g>
<g transform="translate(264,48) scale(4.12)"><rect width="6" height="6"/></g>
<g transform="translate(288,48) scale(4.12)"><path d="M6,6H0V0l3,0c1.7,0,3,1.3,3,3V6z"/></g>
<g transform="translate(336,48) scale(4.12)"><path d="M6,6H0v0c0-3.3,2.7-6,6-6h0L5.6,1.3c-0.4,1.1-0.4,2.4,0,3.5L6,6z"/></g>
<g transform="translate(408,48) scale(4.12)"><path d="M6,6H0v0c0-3.3,2.7-6,6-6h0L5.6,1.3c-0.4,1.1-0.4,2.4,0,3.5L6,6z"/></g>
<g transform="translate(480,48) scale(4.12)"><path d="M6,6H0v0c0-3.3,2.7-6,6-6h0L5.6,1.3c-0.4,1.1-0.4,2.4,0,3.5L6,6z"/></g>
<g transform="translate(552,48) scale(4.12)"><path d="M6,6H0v0c0-3.3,2.7-6,6-6h0L5.6,1.3c-0.4,1.1-0.4,2.4,0,3.5L6,6z"/></g>
<g transform="translate(720,48) scale(4.12)"><circle cx="3" cy="3" r="3"/></g>
<g transform="translate(264,72) scale(4.12)"><rect width="6" height="6"/></g>
<g transform="translate(288,72) scale(4.12)"><rect width="6" height="6"/></g>
<g transform="translate(312,72) scale(4.12)"><rect width="6" height="6"/></g>
<g transform="translate(336,72) scale(4.12)"><rect width="6" height="6"/></g>
<g transform="translate(408,72) scale(4.12)"><path d="M6,6H3C1.3,6,0,4.7,0,3V0l6,0V6z"/></g>
<g transform="translate(432,72) scale(4.12)"><path d="M6,6H0V0l3,0c1.7,0,3,1.3,3,3V6z"/></g>
<g transform="translate(480,72) scale(4.12)"><path d="M6,6H3C1.3,6,0,4.7,0,3V0l6,0V6z"/></g>
<g transform="translate(504,72) scale(4.12)"><rect width="6" height="6"/></g>
<g transform="translate(528,72) scale(4.12)"><rect width="6" height="6"/></g>
<g transform="translate(552,72) scale(4.12)"><rect width="6" height="6"/></g>
<g transform="translate(576,72) scale(4.12)"><rect width="6" height="6"/></g>
<g transform="translate(600,72) scale(4.12)"><rect width="6" height="6"/></g>
<g transform="translate(624,72) scale(4.12)"><rect width="6" height="6"/></g>
<g transform="translate(648,72) scale(4.12)"><path d="M0,0v6l1.3-0.4c1.1-0.4,2.4-0.4,3.5,0L6,6C6,2.7,3.3,0,0,0z"/></g>
<g transform="translate(696,72) scale(4.12)"><path d="M6,6H0v0c0-3.3,2.7-6,6-6h0L5.6,1.3c-0.4,1.1-0.4,2.4,0,3.5L6,6z"/></g>
<g transform="translate(264,96) scale(4.12)"><rect width="6" height="6"/></g>
<g transform="translate(288,96) scale(4.12)"><rect width="6" height="6"/></g>
<g transform="translate(336,96) scale(4.12)"><rect width="6" height="6"/></g>
<g transform="translate(384,96) scale(4.12)"><path d="M6,6H0v0c0-3.3,2.7-6,6-6h0L5.6,1.3c-0.4,1.1-0.4,2.4,0,3.5L6,6z"/></g>
<g transform="translate(432,96) scale(4.12)"><path d="M0,0l0.4,1.3c0.4,1.1,0.4,2.4,0,3.5L0,6c3.3,0,6-2.7,6-6H0z"/></g>
<g transform="translate(552,96) scale(4.12)"><path d="M6,6H3C1.3,6,0,4.7,0,3V0l6,0V6z"/></g>
<g transform="translate(576,96) scale(4.12)"><rect width="6" height="6"/></g>
<g transform="translate(600,96) scale(4.12)"><rect width="6" height="6"/></g>
<g transform="translate(672,96) scale(4.12)"><path d="M6,6H0V3c0-1.7,1.3-3,3-3l3,0V6z"/></g>
<g transform="translate(696,96) scale(4.12)"><rect width="6" height="6"/></g>
<g transform="translate(720,96) scale(4.12)"><path d="M0,0v6l1.3-0.4c1.1-0.4,2.4-0.4,3.5,0L6,6C6,2.7,3.3,0,0,0z"/></g>
<g transform="translate(264,120) scale(4.12)"><path d="M6,6H3C1.3,6,0,4.7,0,3V0l6,0V6z"/></g>
<g transform="translate(288,120) scale(4.12)"><rect width="6" height="6"/></g>
<g transform="translate(336,120) scale(4.12)"><rect width="6" height="6"/></g>
<g transform="translate(360,120) scale(4.12)"><rect width="6" height="6"/></g>
<g transform="translate(384,120) scale(4.12)"><rect width="6" height="6"/></g>
<g transform="translate(576,120) scale(4.12)"><path d="M6,6H3C1.3,6,0,4.7,0,3V0l6,0V6z"/></g>
<g transform="translate(600,120) scale(4.12)"><rect width="6" height="6"/></g>
<g transform="translate(624,120) scale(4.12)"><path d="M0,0v6l1.3-0.4c1.1-0.4,2.4-0.4,3.5,0L6,6C6,2.7,3.3,0,0,0z"/></g>
<g transform="translate(672,120) scale(4.12)"><rect width="6" height="6"/></g>
<g transform="translate(696,120) scale(4.12)"><path d="M3,6H0V0l6,0v3C6,4.7,4.7,6,3,6z"/></g>
<g transform="translate(240,144) scale(4.12)"><path d="M6,6H0v0c0-3.3,2.7-6,6-6h0L5.6,1.3c-0.4,1.1-0.4,2.4,0,3.5L6,6z"/></g>
<g transform="translate(288,144) scale(4.12)"><rect width="6" height="6"/></g>
<g transform="translate(312,144) scale(4.12)"><rect width="6" height="6"/></g>
<g transform="translate(336,144) scale(4.12)"><rect width="6" height="6"/></g>
<g transform="translate(360,144) scale(4.12)"><rect width="6" height="6"/></g>
<g transform="translate(384,144) scale(4.12)"><rect width="6" height="6"/></g>
<g transform="translate(504,144) scale(4.12)"><path d="M6,6H0V3c0-1.7,1.3-3,3-3l3,0V6z"/></g>
<g transform="translate(528,144) scale(4.12)"><path d="M6,6H0V0l3,0c1.7,0,3,1.3,3,3V6z"/></g>
<g transform="translate(672,144) scale(4.12)"><rect width="6" height="6"/></g>
<g transform="translate(240,168) scale(4.12)"><rect width="6" height="6"/></g>
<g transform="translate(264,168) scale(4.12)"><rect width="6" height="6"/></g>
<g transform="translate(288,168) scale(4.12)"><rect width="6" height="6"/></g>
<g transform="translate(312,168) scale(4.12)"><path d="M3,6H0V0l6,0v3C6,4.7,4.7,6,3,6z"/></g>
<g transform="translate(360,168) scale(4.12)"><path d="M6,6H3C1.3,6,0,4.7,0,3V0l6,0V6z"/></g>
<g transform="translate(384,168) scale(4.12)"><rect width="6" height="6"/></g>
<g transform="translate(432,168) scale(4.12)"><path d="M6,6H0v0c0-3.3,2.7-6,6-6h0L5.6,1.3c-0.4,1.1-0.4,2.4,0,3.5L6,6z"/></g>
<g transform="translate(504,168) scale(4.12)"><path d="M6,6H3C1.3,6,0,4.7,0,3V0l6,0V6z"/></g>
<g transform="translate(528,168) scale(4.12)"><rect width="6" height="6"/></g>
<g transform="translate(576,168) scale(4.12)"><path d="M6,6H0v0c0-3.3,2.7-6,6-6h0L5.6,1.3c-0.4,1.1-0.4,2.4,0,3.5L6,6z"/></g>
<g transform="translate(648,168) scale(4.12)"><path d="M4.7,0.4c-1.1,0.4-2.4,0.4-3.5,0L0,0c0,3.3,2.7,6,6,6V0L4.7,0.4z"/></g>
<g transform="translate(672,168) scale(4.12)"><rect width="6" height="6"/></g>
<g transform="translate(696,168) scale(4.12)"><rect width="6" height="6"/></g>
<g transform="translate(720,168) scale(4.12)"><path d="M6,6H0V0l3,0c1.7,0,3,1.3,3,3V6z"/></g>
<g transform="translate(240,192) scale(4.12)"><path d="M0,0l0.4,1.3c0.4,1.1,0.4,2.4,0,3.5L0,6c3.3,0,6-2.7,6-6H0z"/></g>
<g transform="translate(288,192) scale(4.12)"><path d="M0,0l0.4,1.3c0.4,1.1,0.4,2.4,0,3.5L0,6c3.3,0,6-2.7,6-6H0z"/></g>
<g transform="translate(336,192) scale(4.12)"><circle cx="3" cy="3" r="3"/></g>
<g transform="translate(384,192) scale(4.12)"><path d="M0,0l0.4,1.3c0.4,1.1,0.4,2.4,0,3.5L0,6c3.3,0,6-2.7,6-6H0z"/></g>
<g transform="translate(432,192) scale(4.12)"><path d="M0,0l0.4,1.3c0.4,1.1,0.4,2.4,0,3.5L0,6c3.3,0,6-2.7,6-6H0z"/></g>
<g transform="translate(480,192) scale(4.12)"><circle cx="3" cy="3" r="3"/></g>
<g transform="translate(528,192) scale(4.12)"><rect width="6" height="6"/></g>
<g transform="translate(576,192) scale(4.12)"><rect width="6" height="6"/></g>
<g transform="translate(624,192) scale(4.12)"><circle cx="3" cy="3" r="3"/></g>
<g transform="translate(672,192) scale(4.12)"><path d="M0,0l0.4,1.3c0.4,1.1,0.4,2.4,0,3.5L0,6c3.3,0,6-2.7,6-6H0z"/></g>
<g transform="translate(720,192) scale(4.12)"><rect width="6" height="6"/></g>
<g transform="translate(360,216) scale(4.12)"><circle cx="3" cy="3" r="3"/></g>
<g transform="translate(408,216) scale(4.12)"><circle cx="3" cy="3" r="3"/></g>
<g transform="translate(504,216) scale(4.12)"><path d="M4.7,0.4c-1.1,0.4-2.4,0.4-3.5,0L0,0c0,3.3,2.7,6,6,6V0L4.7,0.4z"/></g>
<g transform="translate(528,216) scale(4.12)"><rect width="6" height="6"/></g>
<g transform="translate(552,216) scale(4.12)"><rect width="6" height="6"/></g>
<g transform="translate(576,216) scale(4.12)"><rect width="6" height="6"/></g>
<g transform="translate(600,216) scale(4.12)"><path d="M0,0v6l1.3-0.4c1.1-0.4,2.4-0.4,3.5,0L6,6C6,2.7,3.3,0,0,0z"/></g>
<g transform="translate(720,216) scale(4.12)"><path d="M0,0l0.4,1.3c0.4,1.1,0.4,2.4,0,3.5L0,6c3.3,0,6-2.7,6-6H0z"/></g>
<g transform="translate(72,240) scale(4.12)"><path d="M6,6H0V3c0-1.7,1.3-3,3-3l3,0V6z"/></g>
<g transform="translate(96,240) scale(4.12)"><rect width="6" height="6"/></g>
<g transform="translate(120,240) scale(4.12)"><rect width="6" height="6"/></g>
<g transform="translate(144,240) scale(4.12)"><rect width="6" height="6"/></g>
<g transform="translate(168,240) scale(4.12)"><rect width="6" height="6"/></g>
<g transform="translate(192,240) scale(4.12)"><rect width="6" height="6"/></g>
<g transform="translate(216,240) scale(4.12)"><path d="M6,6H0V0l3,0c1.7,0,3,1.3,3,3V6z"/></g>
<g transform="translate(264,240) scale(4.12)"><circle cx="3" cy="3" r="3"/></g>
<g transform="translate(312,240) scale(4.12)"><circle cx="3" cy="3" r="3"/></g>
<g transform="translate(384,240) scale(4.12)"><circle cx="3" cy="3" r="3"/></g>
<g transform="translate(432,240) scale(4.12)"><path d="M4.7,0.4c-1.1,0.4-2.4,0.4-3.5,0L0,0c0,3.3,2.7,6,6,6V0L4.7,0.4z"/></g>
<g transform="translate(456,240) scale(4.12)"><path d="M0,0v6l1.3-0.4c1.1-0.4,2.4-0.4,3.5,0L6,6C6,2.7,3.3,0,0,0z"/></g>
<g transform="translate(576,240) scale(4.12)"><rect width="6" height="6"/></g>
<g transform="translate(624,240) scale(4.12)"><circle cx="3" cy="3" r="3"/></g>
<g transform="translate(792,240) scale(4.12)"><path d="M4.7,0.4c-1.1,0.4-2.4,0.4-3.5,0L0,0c0,3.3,2.7,6,6,6V0L4.7,0.4z"/></g>
<g transform="translate(816,240) scale(4.12)"><path d="M0,0v6l1.3-0.4c1.1-0.4,2.4-0.4,3.5,0L6,6C6,2.7,3.3,0,0,0z"/></g>
<g transform="translate(912,240) scale(4.12)"><circle cx="3" cy="3" r="3"/></g>
<g transform="translate(72,264) scale(4.12)"><rect width="6" height="6"/></g>
<g transform="translate(96,264) scale(4.12)"><rect width="6" height="6"/></g>
<g transform="translate(120,264) scale(4.12)"><rect width="6" height="6"/></g>
<g transform="translate(168,264) scale(4.12)"><path d="M0,0l0.4,1.3c0.4,1.1,0.4,2.4,0,3.5L0,6c3.3,0,6-2.7,6-6H0z"/></g>
<g transform="translate(216,264) scale(4.12)"><rect width="6" height="6"/></g>
<g transform="translate(336,264) scale(4.12)"><path d="M4.7,0.4c-1.1,0.4-2.4,0.4-3.5,0L0,0c0,3.3,2.7,6,6,6V0L4.7,0.4z"/></g>
<g transform="translate(360,264) scale(4.12)"><path d="M0,0v6l1.3-0.4c1.1-0.4,2.4-0.4,3.5,0L6,6C6,2.7,3.3,0,0,0z"/></g>
<g transform="translate(408,264) scale(4.12)"><path d="M6,6H0v0c0-3.3,2.7-6,6-6h0L5.6,1.3c-0.4,1.1-0.4,2.4,0,3.5L6,6z"/></g>
<g transform="translate(480,264) scale(4.12)"><path d="M6,6H0V3c0-1.7,1.3-3,3-3l3,0V6z"/></g>
<g transform="translate(504,264) scale(4.12)"><path d="M6,6H0V0l3,0c1.7,0,3,1.3,3,3V6z"/></g>
<g transform="translate(552,264) scale(4.12)"><path d="M4.7,0.4c-1.1,0.4-2.4,0.4-3.5,0L0,0c0,3.3,2.7,6,6,6V0L4.7,0.4z"/></g>
<g transform="translate(576,264) scale(4.12)"><rect width="6" height="6"/></g>
<g transform="translate(600,264) scale(4.12)"><path d="M0,0v6l1.3-0.4c1.1-0.4,2.4-0.4,3.5,0L6,6C6,2.7,3.3,0,0,0z"/></g>
<g transform="translate(648,264) scale(4.12)"><path d="M6,6H0V3c0-1.7,1.3-3,3-3l3,0V6z"/></g>
<g transform="translate(672,264) scale(4.12)"><path d="M6,6H0V0l3,0c1.7,0,3,1.3,3,3V6z"/></g>
<g transform="translate(720,264) scale(4.12)"><path d="M4.7,0.4c-1.1,0.4-2.4,0.4-3.5,0L0,0c0,3.3,2.7,6,6,6V0L4.7,0.4z"/></g>
<g transform="translate(744,264) scale(4.12)"><path d="M0,0v6l1.3-0.4c1.1-0.4,2.4-0.4,3.5,0L6,6C6,2.7,3.3,0,0,0z"/></g>
<g transform="translate(888,264) scale(4.12)"><circle cx="3" cy="3" r="3"/></g>
<g transform="translate(48,288) scale(4.12)"><path d="M6,6H0V3c0-1.7,1.3-3,3-3l3,0V6z"/></g>
<g transform="translate(72,288) scale(4.12)"><rect width="6" height="6"/></g>
<g transform="translate(96,288) scale(4.12)"><rect width="6" height="6"/></g>
<g transform="translate(120,288) scale(4.12)"><rect width="6" height="6"/></g>
<g transform="translate(144,288) scale(4.12)"><path d="M0,0v6l1.3-0.4c1.1-0.4,2.4-0.4,3.5,0L6,6C6,2.7,3.3,0,0,0z"/></g>
<g transform="translate(192,288) scale(4.12)"><path d="M4.7,0.4c-1.1,0.4-2.4,0.4-3.5,0L0,0c0,3.3,2.7,6,6,6V0L4.7,0.4z"/></g>
<g transform="translate(216,288) scale(4.12)"><rect width="6" height="6"/></g>
<g transform="translate(240,288) scale(4.12)"><path d="M6,6H0V0l3,0c1.7,0,3,1.3,3,3V6z"/></g>
<g transform="translate(288,288) scale(4.12)"><path d="M6,6H0V3c0-1.7,1.3-3,3-3l3,0V6z"/></g>
<g transform="translate(312,288) scale(4.12)"><path d="M6,6H0V0l3,0c1.7,0,3,1.3,3,3V6z"/></g>
<g transform="translate(384,288) scale(4.12)"><path d="M6,6H0V3c0-1.7,1.3-3,3-3l3,0V6z"/></g>
<g transform="translate(408,288) scale(4.12)"><rect width="6" height="6"/></g>
<g transform="translate(432,288) scale(4.12)"><path d="M6,6H0V0l3,0c1.7,0,3,1.3,3,3V6z"/></g>
<g transform="translate(480,288) scale(4.12)"><rect width="6" height="6"/></g>
<g transform="translate(504,288) scale(4.12)"><rect width="6" height="6"/></g>
<g transform="translate(576,288) scale(4.12)"><path d="M0,0l0.4,1.3c0.4,1.1,0.4,2.4,0,3.5L0,6c3.3,0,6-2.7,6-6H0z"/></g>
<g transform="translate(624,288) scale(4.12)"><path d="M4.7,0.4c-1.1,0.4-2.4,0.4-3.5,0L0,0c0,3.3,2.7,6,6,6V0L4.7,0.4z"/></g>
<g transform="translate(648,288) scale(4.12)"><rect width="6" height="6"/></g>
<g transform="translate(672,288) scale(4.12)"><rect width="6" height="6"/></g>
<g transform="translate(768,288) scale(4.12)"><path d="M6,6H0v0c0-3.3,2.7-6,6-6h0L5.6,1.3c-0.4,1.1-0.4,2.4,0,3.5L6,6z"/></g>
<g transform="translate(816,288) scale(4.12)"><circle cx="3" cy="3" r="3"/></g>
<g transform="translate(864,288) scale(4.12)"><circle cx="3" cy="3" r="3"/></g>
<g transform="translate(912,288) scale(4.12)"><circle cx="3" cy="3" r="3"/></g>
<g transform="translate(48,312) scale(4.12)"><rect width="6" height="6"/></g>
<g transform="translate(72,312) scale(4.12)"><rect width="6" height="6"/></g>
<g transform="translate(96,312) scale(4.12)"><rect width="6" height="6"/></g>
<g transform="translate(120,312) scale(4.12)"><path d="M3,6H0V0l6,0v3C6,4.7,4.7,6,3,6z"/></g>
<g transform="translate(216,312) scale(4.12)"><rect width="6" height="6"/></g>
<g transform="translate(240,312) scale(4.12)"><rect width="6" height="6"/></g>
<g transform="translate(264,312) scale(4.12)"><rect width="6" height="6"/></g>
<g transform="translate(288,312) scale(4.12)"><rect width="6" height="6"/></g>
<g transform="translate(312,312) scale(4.12)"><path d="M3,6H0V0l6,0v3C6,4.7,4.7,6,3,6z"/></g>
<g transform="translate(360,312) scale(4.12)"><path d="M6,6H0V3c0-1.7,1.3-3,3-3l3,0V6z"/></g>
<g transform="translate(384,312) scale(4.12)"><rect width="6" height="6"/></g>
<g transform="translate(408,312) scale(4.12)"><rect width="6" height="6"/></g>
<g transform="translate(432,312) scale(4.12)"><rect width="6" height="6"/></g>
<g transform="translate(456,312) scale(4.12)"><rect width="6" height="6"/></g>
<g transform="translate(480,312) scale(4.12)"><rect width="6" height="6"/></g>
<g transform="translate(504,312) scale(4.12)"><path d="M3,6H0V0l6,0v3C6,4.7,4.7,6,3,6z"/></g>
<g transform="translate(552,312) scale(4.12)"><path d="M6,6H0v0c0-3.3,2.7-6,6-6h0L5.6,1.3c-0.4,1.1-0.4,2.4,0,3.5L6,6z"/></g>
<g transform="translate(672,312) scale(4.12)"><rect width="6" height="6"/></g>
<g transform="translate(768,312) scale(4.12)"><rect width="6" height="6"/></g>
<g transform="translate(792,312) scale(4.12)"><path d="M0,0v6l1.3-0.4c1.1-0.4,2.4-0.4,3.5,0L6,6C6,2.7,3.3,0,0,0z"/></g>
<g transform="translate(888,312) scale(4.12)"><circle cx="3" cy="3" r="3"/></g>
<g transform="translate(48,336) scale(4.12)"><rect width="6" height="6"/></g>
<g transform="translate(72,336) scale(4.12)"><path d="M3,6H0V0l6,0v3C6,4.7,4.7,6,3,6z"/></g>
<g transform="translate(192,336) scale(4.12)"><path d="M4.7,0.4c-1.1,0.4-2.4,0.4-3.5,0L0,0c0,3.3,2.7,6,6,6V0L4.7,0.4z"/></g>
<g transform="translate(216,336) scale(4.12)"><path d="M3,6H0V0l6,0v3C6,4.7,4.7,6,3,6z"/></g>
<g transform="translate(288,336) scale(4.12)"><path d="M0,0l0.4,1.3c0.4,1.1,0.4,2.4,0,3.5L0,6c3.3,0,6-2.7,6-6H0z"/></g>
<g transform="translate(336,336) scale(4.12)"><path d="M4.7,0.4c-1.1,0.4-2.4,0.4-3.5,0L0,0c0,3.3,2.7,6,6,6V0L4.7,0.4z"/></g>
<g transform="translate(360,336) scale(4.12)"><rect width="6" height="6"/></g>
<g transform="translate(384,336) scale(4.12)"><rect width="6" height="6"/></g>
<g transform="translate(432,336) scale(4.12)"><rect width="6" height="6"/></g>
<g transform="translate(456,336) scale(4.12)"><rect width="6" height="6"/></g>
<g transform="translate(480,336) scale(4.12)"><rect width="6" height="6"/></g>
<g transform="translate(528,336) scale(4.12)"><path d="M6,6H0V3c0-1.7,1.3-3,3-3l3,0V6z"/></g>
<g transform="translate(552,336) scale(4.12)"><rect width="6" height="6"/></g>
<g transform="translate(576,336) scale(4.12)"><rect width="6" height="6"/></g>
<g transform="translate(600,336) scale(4.12)"><rect width="6" height="6"/></g>
<g transform="translate(624,336) scale(4.12)"><rect width="6" height="6"/></g>
<g transform="translate(648,336) scale(4.12)"><rect width="6" height="6"/></g>
<g transform="translate(672,336) scale(4.12)"><rect width="6" height="6"/></g>
<g transform="translate(696,336) scale(4.12)"><path d="M6,6H0V0l3,0c1.7,0,3,1.3,3,3V6z"/></g>
<g transform="translate(744,336) scale(4.12)"><path d="M6,6H0V3c0-1.7,1.3-3,3-3l3,0V6z"/></g>
<g transform="translate(768,336) scale(4.12)"><path d="M3,6H0V0l6,0v3C6,4.7,4.7,6,3,6z"/></g>
<g transform="translate(816,336) scale(4.12)"><path d="M4.7,0.4c-1.1,0.4-2.4,0.4-3.5,0L0,0c0,3.3,2.7,6,6,6V0L4.7,0.4z"/></g>
<g transform="translate(840,336) scale(4.12)"><rect width="6" height="6"/></g>
<g transform="translate(864,336) scale(4.12)"><path d="M6,6H0V0l3,0c1.7,0,3,1.3,3,3V6z"/></g>
<g transform="translate(912,336) scale(4.12)"><circle cx="3" cy="3" r="3"/></g>
<g transform="translate(48,360) scale(4.12)"><rect width="6" height="6"/></g>
<g transform="translate(120,360) scale(4.12)"><path d="M6,6H0V3c0-1.7,1.3-3,3-3l3,0V6z"/></g>
<g transform="translate(144,360) scale(4.12)"><path d="M0,0v6l1.3-0.4c1.1-0.4,2.4-0.4,3.5,0L6,6C6,2.7,3.3,0,0,0z"/></g>
<g transform="translate(312,360) scale(4.12)"><circle cx="3" cy="3" r="3"/></g>
<g transform="translate(360,360) scale(4.12)"><rect width="6" height="6"/></g>
<g transform="translate(384,360) scale(4.12)"><path d="M3,6H0V0l6,0v3C6,4.7,4.7,6,3,6z"/></g>
<g transform="translate(432,360) scale(4.12)"><path d="M6,6H3C1.3,6,0,4.7,0,3V0l6,0V6z"/></g>
<g transform="translate(456,360) scale(4.12)"><rect width="6" height="6"/></g>
<g transform="translate(480,360) scale(4.12)"><path d="M3,6H0V0l6,0v3C6,4.7,4.7,6,3,6z"/></g>
<g transform="translate(528,360) scale(4.12)"><rect width="6" height="6"/></g>
<g transform="translate(552,360) scale(4.12)"><rect width="6" height="6"/></g>
<g transform="translate(576,360) scale(4.12)"><rect width="6" height="6"/></g>
<g transform="translate(600,360) scale(4.12)"><path d="M3,6H0V0l6,0v3C6,4.7,4.7,6,3,6z"/></g>
<g transform="translate(672,360) scale(4.12)"><rect width="6" height="6"/></g>
<g transform="translate(696,360) scale(4.12)"><rect width="6" height="6"/></g>
<g transform="translate(720,360) scale(4.12)"><rect width="6" height="6"/></g>
<g transform="translate(744,360) scale(4.12)"><path d="M3,6H0V0l6,0v3C6,4.7,4.7,6,3,6z"/></g>
<g transform="translate(792,360) scale(4.12)"><path d="M6,6H0v0c0-3.3,2.7-6,6-6h0L5.6,1.3c-0.4,1.1-0.4,2.4,0,3.5L6,6z"/></g>
<g transform="translate(840,360) scale(4.12)"><rect width="6" height="6"/></g>
<g transform="translate(864,360) scale(4.12)"><path d="M3,6H0V0l6,0v3C6,4.7,4.7,6,3,6z"/></g>
<g transform="translate(48,384) scale(4.12)"><rect width="6" height="6"/></g>
<g transform="translate(96,384) scale(4.12)"><path d="M6,6H0V3c0-1.7,1.3-3,3-3l3,0V6z"/></g>
<g transform="translate(120,384) scale(4.12)"><rect width="6" height="6"/></g>
<g transform="translate(168,384) scale(4.12)"><path d="M6,6H0V3c0-1.7,1.3-3,3-3l3,0V6z"/></g>
<g transform="translate(192,384) scale(4.12)"><rect width="6" height="6"/></g>
<g transform="translate(216,384) scale(4.12)"><path d="M6,6H0V0l3,0c1.7,0,3,1.3,3,3V6z"/></g>
<g transform="translate(264,384) scale(4.12)"><path d="M4.7,0.4c-1.1,0.4-2.4,0.4-3.5,0L0,0c0,3.3,2.7,6,6,6V0L4.7,0.4z"/></g>
<g transform="translate(288,384) scale(4.12)"><path d="M6,6H0V0l3,0c1.7,0,3,1.3,3,3V6z"/></g>
<g transform="translate(336,384) scale(4.12)"><path d="M4.7,0.4c-1.1,0.4-2.4,0.4-3.5,0L0,0c0,3.3,2.7,6,6,6V0L4.7,0.4z"/></g>
<g transform="translate(360,384) scale(4.12)"><path d="M3,6H0V0l6,0v3C6,4.7,4.7,6,3,6z"/></g>
<g transform="translate(456,384) scale(4.12)"><rect width="6" height="6"/></g>
<g transform="translate(504,384) scale(4.12)"><path d="M4.7,0.4c-1.1,0.4-2.4,0.4-3.5,0L0,0c0,3.3,2.7,6,6,6V0L4.7,0.4z"/></g>
<g transform="translate(528,384) scale(4.12)"><rect width="6" height="6"/></g>
<g transform="translate(552,384) scale(4.12)"><rect width="6" height="6"/></g>
<g transform="translate(624,384) scale(4.12)"><circle cx="3" cy="3" r="3"/></g>
<g transform="translate(672,384) scale(4.12)"><rect width="6" height="6"/></g>
<g transform="translate(696,384) scale(4.12)"><rect width="6" height="6"/></g>
<g transform="translate(720,384) scale(4.12)"><path d="M3,6H0V0l6,0v3C6,4.7,4.7,6,3,6z"/></g>
<g transform="translate(792,384) scale(4.12)"><path d="M0,0l0.4,1.3c0.4,1.1,0.4,2.4,0,3.5L0,6c3.3,0,6-2.7,6-6H0z"/></g>
<g transform="translate(840,384) scale(4.12)"><path d="M0,0l0.4,1.3c0.4,1.1,0.4,2.4,0,3.5L0,6c3.3,0,6-2.7,6-6H0z"/></g>
<g transform="translate(888,384) scale(4.12)"><path d="M6,6H0V3c0-1.7,1.3-3,3-3l3,0V6z"/></g>
<g transform="translate(912,384) scale(4.12)"><path d="M6,6H0V0l3,0c1.7,0,3,1.3,3,3V6z"/></g>
<g transform="translate(48,408) scale(4.12)"><path d="M0,0l0.4,1.3c0.4,1.1,0.4,2.4,0,3.5L0,6c3.3,0,6-2.7,6-6H0z"/></g>
<g transform="translate(96,408) scale(4.12)"><path d="M6,6H3C1.3,6,0,4.7,0,3V0l6,0V6z"/></g>
<g transform="translate(120,408) scale(4.12)"><path d="M3,6H0V0l6,0v3C6,4.7,4.7,6,3,6z"/></g>
<g transform="translate(168,408) scale(4.12)"><rect width="6" height="6"/></g>
<g transform="translate(216,408) scale(4.12)"><path d="M0,0l0.4,1.3c0.4,1.1,0.4,2.4,0,3.5L0,6c3.3,0,6-2.7,6-6H0z"/></g>
<g transform="translate(288,408) scale(4.12)"><rect width="6" height="6"/></g>
<g transform="translate(312,408) scale(4.12)"><path d="M6,6H0V0l3,0c1.7,0,3,1.3,3,3V6z"/></g>
<g transform="translate(384,408) scale(4.12)"><path d="M6,6H0V3c0-1.7,1.3-3,3-3l3,0V6z"/></g>
<g transform="translate(408,408) scale(4.12)"><rect width="6" height="6"/></g>
<g transform="translate(432,408) scale(4.12)"><rect width="6" height="6"/></g>
<g transform="translate(456,408) scale(4.12)"><path d="M3,6H0V0l6,0v3C6,4.7,4.7,6,3,6z"/></g>
<g transform="translate(528,408) scale(4.12)"><rect width="6" height="6"/></g>
<g transform="translate(552,408) scale(4.12)"><rect width="6" height="6"/></g>
<g transform="translate(576,408) scale(4.12)"><path d="M0,0v6l1.3-0.4c1.1-0.4,2.4-0.4,3.5,0L6,6C6,2.7,3.3,0,0,0z"/></g>
<g transform="translate(672,408) scale(4.12)"><rect width="6" height="6"/></g>
<g transform="translate(744,408) scale(4.12)"><path d="M6,6H0V3c0-1.7,1.3-3,3-3l3,0V6z"/></g>
<g transform="translate(768,408) scale(4.12)"><path d="M6,6H0V0l3,0c1.7,0,3,1.3,3,3V6z"/></g>
<g transform="translate(888,408) scale(4.12)"><path d="M6,6H3C1.3,6,0,4.7,0,3V0l6,0V6z"/></g>
<g transform="translate(912,408) scale(4.12)"><path d="M3,6H0V0l6,0v3C6,4.7,4.7,6,3,6z"/></g>
<g transform="translate(144,432) scale(4.12)"><path d="M4.7,0.4c-1.1,0.4-2.4,0.4-3.5,0L0,0c0,3.3,2.7,6,6,6V0L4.7,0.4z"/></g>
<g transform="translate(168,432) scale(4.12)"><rect width="6" height="6"/></g>
<g transform="translate(192,432) scale(4.12)"><path d="M0,0v6l1.3-0.4c1.1-0.4,2.4-0.4,3.5,0L6,6C6,2.7,3.3,0,0,0z"/></g>
<g transform="translate(264,432) scale(4.12)"><path d="M4.7,0.4c-1.1,0.4-2.4,0.4-3.5,0L0,0c0,3.3,2.7,6,6,6V0L4.7,0.4z"/></g>
<g transform="translate(288,432) scale(4.12)"><rect width="6" height="6"/></g>
<g transform="translate(312,432) scale(4.12)"><rect width="6" height="6"/></g>
<g transform="translate(336,432) scale(4.12)"><rect width="6" height="6"/></g>
<g transform="translate(360,432) scale(4.12)"><rect width="6" height="6"/></g>
<g transform="translate(384,432) scale(4.12)"><path d="M3,6H0V0l6,0v3C6,4.7,4.7,6,3,6z"/></g>
<g transform="translate(432,432) scale(4.12)"><rect width="6" height="6"/></g>
<g transform="translate(528,432) scale(4.12)"><path d="M6,6H3C1.3,6,0,4.7,0,3V0l6,0V6z"/></g>
<g transform="translate(552,432) scale(4.12)"><path d="M3,6H0V0l6,0v3C6,4.7,4.7,6,3,6z"/></g>
<g transform="translate(600,432) scale(4.12)"><path d="M4.7,0.4c-1.1,0.4-2.4,0.4-3.5,0L0,0c0,3.3,2.7,6,6,6V0L4.7,0.4z"/></g>
<g transform="translate(624,432) scale(4.12)"><rect width="6" height="6"/></g>
<g transform="translate(648,432) scale(4.12)"><rect width="6" height="6"/></g>
<g transform="translate(672,432) scale(4.12)"><rect width="6" height="6"/></g>
<g transform="translate(696,432) scale(4.12)"><path d="M0,0v6l1.3-0.4c1.1-0.4,2.4-0.4,3.5,0L6,6C6,2.7,3.3,0,0,0z"/></g>
<g transform="translate(744,432) scale(4.12)"><rect width="6" height="6"/></g>
<g transform="translate(768,432) scale(4.12)"><path d="M3,6H0V0l6,0v3C6,4.7,4.7,6,3,6z"/></g>
<g transform="translate(816,432) scale(4.12)"><circle cx="3" cy="3" r="3"/></g>
<g transform="translate(864,432) scale(4.12)"><path d="M6,6H0v0c0-3.3,2.7-6,6-6h0L5.6,1.3c-0.4,1.1-0.4,2.4,0,3.5L6,6z"/></g>
<g transform="translate(72,456) scale(4.12)"><path d="M4.7,0.4c-1.1,0.4-2.4,0.4-3.5,0L0,0c0,3.3,2.7,6,6,6V0L4.7,0.4z"/></g>
<g transform="translate(96,456) scale(4.12)"><rect width="6" height="6"/></g>
<g transform="translate(120,456) scale(4.12)"><path d="M6,6H0V0l3,0c1.7,0,3,1.3,3,3V6z"/></g>
<g transform="translate(240,456) scale(4.12)"><circle cx="3" cy="3" r="3"/></g>
<g transform="translate(312,456) scale(4.12)"><path d="M6,6H3C1.3,6,0,4.7,0,3V0l6,0V6z"/></g>
<g transform="translate(336,456) scale(4.12)"><rect width="6" height="6"/></g>
<g transform="translate(360,456) scale(4.12)"><path d="M3,6H0V0l6,0v3C6,4.7,4.7,6,3,6z"/></g>
<g transform="translate(432,456) scale(4.12)"><rect width="6" height="6"/></g>
<g transform="translate(480,456) scale(4.12)"><circle cx="3" cy="3" r="3"/></g>
<g transform="translate(576,456) scale(4.12)"><path d="M6,6H0v0c0-3.3,2.7-6,6-6h0L5.6,1.3c-0.4,1.1-0.4,2.4,0,3.5L6,6z"/></g>
<g transform="translate(624,456) scale(4.12)"><rect width="6" height="6"/></g>
<g transform="translate(672,456) scale(4.12)"><path d="M0,0l0.4,1.3c0.4,1.1,0.4,2.4,0,3.5L0,6c3.3,0,6-2.7,6-6H0z"/></g>
<g transform="translate(720,456) scale(4.12)"><path d="M6,6H0V3c0-1.7,1.3-3,3-3l3,0V6z"/></g>
<g transform="translate(744,456) scale(4.12)"><path d="M3,6H0V0l6,0v3C6,4.7,4.7,6,3,6z"/></g>
<g transform="translate(792,456) scale(4.12)"><path d="M6,6H0v0c0-3.3,2.7-6,6-6h0L5.6,1.3c-0.4,1.1-0.4,2.4,0,3.5L6,6z"/></g>
<g transform="translate(864,456) scale(4.12)"><rect width="6" height="6"/></g>
<g transform="translate(96,480) scale(4.12)"><path d="M6,6H3C1.3,6,0,4.7,0,3V0l6,0V6z"/></g>
<g transform="translate(120,480) scale(4.12)"><rect width="6" height="6"/></g>
<g transform="translate(168,480) scale(4.12)"><path d="M6,6H0V3c0-1.7,1.3-3,3-3l3,0V6z"/></g>
<g transform="translate(192,480) scale(4.12)"><path d="M0,0v6l1.3-0.4c1.1-0.4,2.4-0.4,3.5,0L6,6C6,2.7,3.3,0,0,0z"/></g>
<g transform="translate(432,480) scale(4.12)"><rect width="6" height="6"/></g>
<g transform="translate(456,480) scale(4.12)"><path d="M6,6H0V0l3,0c1.7,0,3,1.3,3,3V6z"/></g>
<g transform="translate(528,480) scale(4.12)"><circle cx="3" cy="3" r="3"/></g>
<g transform="translate(576,480) scale(4.12)"><path d="M0,0l0.4,1.3c0.4,1.1,0.4,2.4,0,3.5L0,6c3.3,0,6-2.7,6-6H0z"/></g>
<g transform="translate(624,480) scale(4.12)"><rect width="6" height="6"/></g>
<g transform="translate(648,480) scale(4.12)"><path d="M0,0v6l1.3-0.4c1.1-0.4,2.4-0.4,3.5,0L6,6C6,2.7,3.3,0,0,0z"/></g>
<g transform="translate(696,480) scale(4.12)"><path d="M6,6H0V3c0-1.7,1.3-3,3-3l3,0V6z"/></g>
<g transform="translate(720,480) scale(4.12)"><rect width="6" height="6"/></g>
<g transform="translate(792,480) scale(4.12)"><rect width="6" height="6"/></g>
<g transform="translate(816,480) scale(4.12)"><rect width="6" height="6"/></g>
<g transform="translate(840,480) scale(4.12)"><rect width="6" height="6"/></g>
<g transform="translate(864,480) scale(4.12)"><rect width="6" height="6"/></g>
<g transform="translate(888,480) scale(4.12)"><rect width="6" height="6"/></g>
<g transform="translate(912,480) scale(4.12)"><path d="M0,0v6l1.3-0.4c1.1-0.4,2.4-0.4,3.5,0L6,6C6,2.7,3.3,0,0,0z"/></g>
<g transform="translate(48,504) scale(4.12)"><path d="M4.7,0.4c-1.1,0.4-2.4,0.4-3.5,0L0,0c0,3.3,2.7,6,6,6V0L4.7,0.4z"/></g>
<g transform="translate(72,504) scale(4.12)"><path d="M0,0v6l1.3-0.4c1.1-0.4,2.4-0.4,3.5,0L6,6C6,2.7,3.3,0,0,0z"/></g>
<g transform="translate(120,504) scale(4.12)"><rect width="6" height="6"/></g>
<g transform="translate(168,504) scale(4.12)"><rect width="6" height="6"/></g>
<g transform="translate(240,504) scale(4.12)"><path d="M4.7,0.4c-1.1,0.4-2.4,0.4-3.5,0L0,0c0,3.3,2.7,6,6,6V0L4.7,0.4z"/></g>
<g transform="translate(264,504) scale(4.12)"><rect width="6" height="6"/></g>
<g transform="translate(288,504) scale(4.12)"><rect width="6" height="6"/></g>
<g transform="translate(312,504) scale(4.12)"><rect width="6" height="6"/></g>
<g transform="translate(336,504) scale(4.12)"><rect width="6" height="6"/></g>
<g transform="translate(360,504) scale(4.12)"><rect width="6" height="6"/></g>
<g transform="translate(384,504) scale(4.12)"><rect width="6" height="6"/></g>
<g transform="translate(408,504) scale(4.12)"><rect width="6" height="6"/></g>
<g transform="translate(432,504) scale(4.12)"><rect width="6" height="6"/></g>
<g transform="translate(456,504) scale(4.12)"><rect width="6" height="6"/></g>
<g transform="translate(504,504) scale(4.12)"><circle cx="3" cy="3" r="3"/></g>
<g transform="translate(552,504) scale(4.12)"><circle cx="3" cy="3" r="3"/></g>
<g transform="translate(624,504) scale(4.12)"><path d="M0,0l0.4,1.3c0.4,1.1,0.4,2.4,0,3.5L0,6c3.3,0,6-2.7,6-6H0z"/></g>
<g transform="translate(672,504) scale(4.12)"><path d="M6,6H0V3c0-1.7,1.3-3,3-3l3,0V6z"/></g>
<g transform="translate(696,504) scale(4.12)"><rect width="6" height="6"/></g>
<g transform="translate(720,504) scale(4.12)"><rect width="6" height="6"/></g>
<g transform="translate(744,504) scale(4.12)"><rect width="6" height="6"/></g>
<g transform="translate(768,504) scale(4.12)"><rect width="6" height="6"/></g>
<g transform="translate(792,504) scale(4.12)"><rect width="6" height="6"/></g>
<g transform="translate(840,504) scale(4.12)"><rect width="6" height="6"/></g>
<g transform="translate(120,528) scale(4.12)"><path d="M0,0l0.4,1.3c0.4,1.1,0.4,2.4,0,3.5L0,6c3.3,0,6-2.7,6-6H0z"/></g>
<g transform="translate(168,528) scale(4.12)"><path d="M6,6H3C1.3,6,0,4.7,0,3V0l6,0V6z"/></g>
<g transform="translate(192,528) scale(4.12)"><path d="M0,0v6l1.3-0.4c1.1-0.4,2.4-0.4,3.5,0L6,6C6,2.7,3.3,0,0,0z"/></g>
<g transform="translate(288,528) scale(4.12)"><rect width="6" height="6"/></g>
<g transform="translate(312,528) scale(4.12)"><rect width="6" height="6"/></g>
<g transform="translate(336,528) scale(4.12)"><rect width="6" height="6"/></g>
<g transform="translate(360,528) scale(4.12)"><rect width="6" height="6"/></g>
<g transform="translate(408,528) scale(4.12)"><rect width="6" height="6"/></g>
<g transform="translate(456,528) scale(4.12)"><path d="M0,0l0.4,1.3c0.4,1.1,0.4,2.4,0,3.5L0,6c3.3,0,6-2.7,6-6H0z"/></g>
<g transform="translate(528,528) scale(4.12)"><circle cx="3" cy="3" r="3"/></g>
<g transform="translate(576,528) scale(4.12)"><path d="M6,6H0v0c0-3.3,2.7-6,6-6h0L5.6,1.3c-0.4,1.1-0.4,2.4,0,3.5L6,6z"/></g>
<g transform="translate(672,528) scale(4.12)"><path d="M0,0l0.4,1.3c0.4,1.1,0.4,2.4,0,3.5L0,6c3.3,0,6-2.7,6-6H0z"/></g>
<g transform="translate(744,528) scale(4.12)"><path d="M6,6H3C1.3,6,0,4.7,0,3V0l6,0V6z"/></g>
<g transform="translate(768,528) scale(4.12)"><rect width="6" height="6"/></g>
<g transform="translate(792,528) scale(4.12)"><rect width="6" height="6"/></g>
<g transform="translate(816,528) scale(4.12)"><rect width="6" height="6"/></g>
<g transform="translate(840,528) scale(4.12)"><rect width="6" height="6"/></g>
<g transform="translate(864,528) scale(4.12)"><path d="M0,0v6l1.3-0.4c1.1-0.4,2.4-0.4,3.5,0L6,6C6,2.7,3.3,0,0,0z"/></g>
<g transform="translate(912,528) scale(4.12)"><circle cx="3" cy="3" r="3"/></g>
<g transform="translate(48,552) scale(4.12)"><circle cx="3" cy="3" r="3"/></g>
<g transform="translate(264,552) scale(4.12)"><path d="M6,6H0V3c0-1.7,1.3-3,3-3l3,0V6z"/></g>
<g transform="translate(288,552) scale(4.12)"><rect width="6" height="6"/></g>
<g transform="translate(312,552) scale(4.12)"><rect width="6" height="6"/></g>
<g transform="translate(336,552) scale(4.12)"><rect width="6" height="6"/></g>
<g transform="translate(360,552) scale(4.12)"><rect width="6" height="6"/></g>
<g transform="translate(408,552) scale(4.12)"><path d="M6,6H3C1.3,6,0,4.7,0,3V0l6,0V6z"/></g>
<g transform="translate(432,552) scale(4.12)"><path d="M6,6H0V0l3,0c1.7,0,3,1.3,3,3V6z"/></g>
<g transform="translate(480,552) scale(4.12)"><path d="M4.7,0.4c-1.1,0.4-2.4,0.4-3.5,0L0,0c0,3.3,2.7,6,6,6V0L4.7,0.4z"/></g>
<g transform="translate(504,552) scale(4.12)"><path d="M0,0v6l1.3-0.4c1.1-0.4,2.4-0.4,3.5,0L6,6C6,2.7,3.3,0,0,0z"/></g>
<g transform="translate(552,552) scale(4.12)"><path d="M6,6H0V3c0-1.7,1.3-3,3-3l3,0V6z"/></g>
<g transform="translate(576,552) scale(4.12)"><path d="M3,6H0V0l6,0v3C6,4.7,4.7,6,3,6z"/></g>
<g transform="translate(768,552) scale(4.12)"><rect width="6" height="6"/></g>
<g transform="translate(792,552) scale(4.12)"><path d="M3,6H0V0l6,0v3C6,4.7,4.7,6,3,6z"/></g>
<g transform="translate(840,552) scale(4.12)"><rect width="6" height="6"/></g>
<g transform="translate(72,576) scale(4.12)"><path d="M4.7,0.4c-1.1,0.4-2.4,0.4-3.5,0L0,0c0,3.3,2.7,6,6,6V0L4.7,0.4z"/></g>
<g transform="translate(96,576) scale(4.12)"><path d="M0,0v6l1.3-0.4c1.1-0.4,2.4-0.4,3.5,0L6,6C6,2.7,3.3,0,0,0z"/></g>
<g transform="translate(168,576) scale(4.12)"><path d="M4.7,0.4c-1.1,0.4-2.4,0.4-3.5,0L0,0c0,3.3,2.7,6,6,6V0L4.7,0.4z"/></g>
<g transform="translate(192,576) scale(4.12)"><path d="M0,0v6l1.3-0.4c1.1-0.4,2.4-0.4,3.5,0L6,6C6,2.7,3.3,0,0,0z"/></g>
<g transform="translate(240,576) scale(4.12)"><path d="M4.7,0.4c-1.1,0.4-2.4,0.4-3.5,0L0,0c0,3.3,2.7,6,6,6V0L4.7,0.4z"/></g>
<g transform="translate(264,576) scale(4.12)"><rect width="6" height="6"/></g>
<g transform="translate(288,576) scale(4.12)"><rect width="6" height="6"/></g>
<g transform="translate(336,576) scale(4.12)"><rect width="6" height="6"/></g>
<g transform="translate(360,576) scale(4.12)"><rect width="6" height="6"/></g>
<g transform="translate(384,576) scale(4.12)"><path d="M6,6H0V0l3,0c1.7,0,3,1.3,3,3V6z"/></g>
<g transform="translate(432,576) scale(4.12)"><rect width="6" height="6"/></g>
<g transform="translate(528,576) scale(4.12)"><path d="M6,6H0V3c0-1.7,1.3-3,3-3l3,0V6z"/></g>
<g transform="translate(552,576) scale(4.12)"><rect width="6" height="6"/></g>
<g transform="translate(600,576) scale(4.12)"><path d="M6,6H0V3c0-1.7,1.3-3,3-3l3,0V6z"/></g>
<g transform="translate(624,576) scale(4.12)"><rect width="6" height="6"/></g>
<g transform="translate(648,576) scale(4.12)"><rect width="6" height="6"/></g>
<g transform="translate(672,576) scale(4.12)"><rect width="6" height="6"/></g>
<g transform="translate(696,576) scale(4.12)"><path d="M0,0v6l1.3-0.4c1.1-0.4,2.4-0.4,3.5,0L6,6C6,2.7,3.3,0,0,0z"/></g>
<g transform="translate(744,576) scale(4.12)"><path d="M4.7,0.4c-1.1,0.4-2.4,0.4-3.5,0L0,0c0,3.3,2.7,6,6,6V0L4.7,0.4z"/></g>
<g transform="translate(768,576) scale(4.12)"><path d="M3,6H0V0l6,0v3C6,4.7,4.7,6,3,6z"/></g>
<g transform="translate(840,576) scale(4.12)"><path d="M6,6H3C1.3,6,0,4.7,0,3V0l6,0V6z"/></g>
<g transform="translate(864,576) scale(4.12)"><rect width="6" height="6"/></g>
<g transform="translate(888,576) scale(4.12)"><path d="M0,0v6l1.3-0.4c1.1-0.4,2.4-0.4,3.5,0L6,6C6,2.7,3.3,0,0,0z"/></g>
<g transform="translate(48,600) scale(4.12)"><circle cx="3" cy="3" r="3"/></g>
<g transform="translate(144,600) scale(4.12)"><circle cx="3" cy="3" r="3"/></g>
<g transform="translate(264,600) scale(4.12)"><path d="M6,6H3C1.3,6,0,4.7,0,3V0l6,0V6z"/></g>
<g transform="translate(288,600) scale(4.12)"><rect width="6" height="6"/></g>
<g transform="translate(336,600) scale(4.12)"><rect width="6" height="6"/></g>
<g transform="translate(360,600) scale(4.12)"><rect width="6" height="6"/></g>
<g transform="translate(384,600) scale(4.12)"><path d="M3,6H0V0l6,0v3C6,4.7,4.7,6,3,6z"/></g>
<g transform="translate(432,600) scale(4.12)"><path d="M0,0l0.4,1.3c0.4,1.1,0.4,2.4,0,3.5L0,6c3.3,0,6-2.7,6-6H0z"/></g>
<g transform="translate(528,600) scale(4.12)"><rect width="6" height="6"/></g>
<g transform="translate(552,600) scale(4.12)"><path d="M3,6H0V0l6,0v3C6,4.7,4.7,6,3,6z"/></g>
<g transform="translate(600,600) scale(4.12)"><path d="M6,6H3C1.3,6,0,4.7,0,3V0l6,0V6z"/></g>
<g transform="translate(624,600) scale(4.12)"><rect width="6" height="6"/></g>
<g transform="translate(672,600) scale(4.12)"><path d="M0,0l0.4,1.3c0.4,1.1,0.4,2.4,0,3.5L0,6c3.3,0,6-2.7,6-6H0z"/></g>
<g transform="translate(792,600) scale(4.12)"><circle cx="3" cy="3" r="3"/></g>
<g transform="translate(72,624) scale(4.12)"><path d="M4.7,0.4c-1.1,0.4-2.4,0.4-3.5,0L0,0c0,3.3,2.7,6,6,6V0L4.7,0.4z"/></g>
<g transform="translate(96,624) scale(4.12)"><rect width="6" height="6"/></g>
<g transform="translate(120,624) scale(4.12)"><path d="M0,0v6l1.3-0.4c1.1-0.4,2.4-0.4,3.5,0L6,6C6,2.7,3.3,0,0,0z"/></g>
<g transform="translate(192,624) scale(4.12)"><path d="M4.7,0.4c-1.1,0.4-2.4,0.4-3.5,0L0,0c0,3.3,2.7,6,6,6V0L4.7,0.4z"/></g>
<g transform="translate(216,624) scale(4.12)"><path d="M6,6H0V0l3,0c1.7,0,3,1.3,3,3V6z"/></g>
<g transform="translate(288,624) scale(4.12)"><path d="M0,0l0.4,1.3c0.4,1.1,0.4,2.4,0,3.5L0,6c3.3,0,6-2.7,6-6H0z"/></g>
<g transform="translate(336,624) scale(4.12)"><rect width="6" height="6"/></g>
<g transform="translate(408,624) scale(4.12)"><circle cx="3" cy="3" r="3"/></g>
<g transform="translate(480,624) scale(4.12)"><path d="M4.7,0.4c-1.1,0.4-2.4,0.4-3.5,0L0,0c0,3.3,2.7,6,6,6V0L4.7,0.4z"/></g>
<g transform="translate(504,624) scale(4.12)"><rect width="6" height="6"/></g>
<g transform="translate(528,624) scale(4.12)"><path d="M3,6H0V0l6,0v3C6,4.7,4.7,6,3,6z"/></g>
<g transform="translate(624,624) scale(4.12)"><path d="M0,0l0.4,1.3c0.4,1.1,0.4,2.4,0,3.5L0,6c3.3,0,6-2.7,6-6H0z"/></g>
<g transform="translate(744,624) scale(4.12)"><path d="M6,6H0V3c0-1.7,1.3-3,3-3l3,0V6z"/></g>
<g transform="translate(768,624) scale(4.12)"><path d="M6,6H0V0l3,0c1.7,0,3,1.3,3,3V6z"/></g>
<g transform="translate(816,624) scale(4.12)"><circle cx="3" cy="3" r="3"/></g>
<g transform="translate(864,624) scale(4.12)"><circle cx="3" cy="3" r="3"/></g>
<g transform="translate(912,624) scale(4.12)"><circle cx="3" cy="3" r="3"/></g>
<g transform="translate(48,648) scale(4.12)"><path d="M6,6H0v0c0-3.3,2.7-6,6-6h0L5.6,1.3c-0.4,1.1-0.4,2.4,0,3.5L6,6z"/></g>
<g transform="translate(96,648) scale(4.12)"><rect width="6" height="6"/></g>
<g transform="translate(144,648) scale(4.12)"><circle cx="3" cy="3" r="3"/></g>
<g transform="translate(216,648) scale(4.12)"><path d="M6,6H3C1.3,6,0,4.7,0,3V0l6,0V6z"/></g>
<g transform="translate(240,648) scale(4.12)"><rect width="6" height="6"/></g>
<g transform="translate(264,648) scale(4.12)"><path d="M0,0v6l1.3-0.4c1.1-0.4,2.4-0.4,3.5,0L6,6C6,2.7,3.3,0,0,0z"/></g>
<g transform="translate(312,648) scale(4.12)"><path d="M4.7,0.4c-1.1,0.4-2.4,0.4-3.5,0L0,0c0,3.3,2.7,6,6,6V0L4.7,0.4z"/></g>
<g transform="translate(336,648) scale(4.12)"><rect width="6" height="6"/></g>
<g transform="translate(360,648) scale(4.12)"><path d="M6,6H0V0l3,0c1.7,0,3,1.3,3,3V6z"/></g>
<g transform="translate(552,648) scale(4.12)"><circle cx="3" cy="3" r="3"/></g>
<g transform="translate(600,648) scale(4.12)"><circle cx="3" cy="3" r="3"/></g>
<g transform="translate(696,648) scale(4.12)"><path d="M4.7,0.4c-1.1,0.4-2.4,0.4-3.5,0L0,0c0,3.3,2.7,6,6,6V0L4.7,0.4z"/></g>
<g transform="translate(720,648) scale(4.12)"><rect width="6" height="6"/></g>
<g transform="translate(744,648) scale(4.12)"><rect width="6" height="6"/></g>
<g transform="translate(768,648) scale(4.12)"><rect width="6" height="6"/></g>
<g transform="translate(48,672) scale(4.12)"><rect width="6" height="6"/></g>
<g transform="translate(96,672) scale(4.12)"><rect width="6" height="6"/></g>
<g transform="translate(192,672) scale(4.12)"><circle cx="3" cy="3" r="3"/></g>
<g transform="translate(240,672) scale(4.12)"><rect width="6" height="6"/></g>
<g transform="translate(360,672) scale(4.12)"><path d="M6,6H3C1.3,6,0,4.7,0,3V0l6,0V6z"/></g>
<g transform="translate(384,672) scale(4.12)"><path d="M0,0v6l1.3-0.4c1.1-0.4,2.4-0.4,3.5,0L6,6C6,2.7,3.3,0,0,0z"/></g>
<g transform="translate(456,672) scale(4.12)"><path d="M4.7,0.4c-1.1,0.4-2.4,0.4-3.5,0L0,0c0,3.3,2.7,6,6,6V0L4.7,0.4z"/></g>
<g transform="translate(480,672) scale(4.12)"><path d="M0,0v6l1.3-0.4c1.1-0.4,2.4-0.4,3.5,0L6,6C6,2.7,3.3,0,0,0z"/></g>
<g transform="translate(528,672) scale(4.12)"><path d="M6,6H0v0c0-3.3,2.7-6,6-6h0L5.6,1.3c-0.4,1.1-0.4,2.4,0,3.5L6,6z"/></g>
<g transform="translate(576,672) scale(4.12)"><circle cx="3" cy="3" r="3"/></g>
<g transform="translate(648,672) scale(4.12)"><path d="M4.7,0.4c-1.1,0.4-2.4,0.4-3.5,0L0,0c0,3.3,2.7,6,6,6V0L4.7,0.4z"/></g>
<g transform="translate(672,672) scale(4.12)"><path d="M0,0v6l1.3-0.4c1.1-0.4,2.4-0.4,3.5,0L6,6C6,2.7,3.3,0,0,0z"/></g>
<g transform="translate(768,672) scale(4.12)"><path d="M6,6H3C1.3,6,0,4.7,0,3V0l6,0V6z"/></g>
<g transform="translate(792,672) scale(4.12)"><rect width="6" height="6"/></g>
<g transform="translate(816,672) scale(4.12)"><rect width="6" height="6"/></g>
<g transform="translate(840,672) scale(4.12)"><rect width="6" height="6"/></g>
<g transform="translate(864,672) scale(4.12)"><rect width="6" height="6"/></g>
<g transform="translate(888,672) scale(4.12)"><rect width="6" height="6"/></g>
<g transform="translate(912,672) scale(4.12)"><path d="M6,6H0V0l3,0c1.7,0,3,1.3,3,3V6z"/></g>
<g transform="translate(48,696) scale(4.12)"><rect width="6" height="6"/></g>
<g transform="translate(96,696) scale(4.12)"><rect width="6" height="6"/></g>
<g transform="translate(120,696) scale(4.12)"><rect width="6" height="6"/></g>
<g transform="translate(144,696) scale(4.12)"><rect width="6" height="6"/></g>
<g transform="translate(168,696) scale(4.12)"><path d="M6,6H0V0l3,0c1.7,0,3,1.3,3,3V6z"/></g>
<g transform="translate(240,696) scale(4.12)"><rect width="6" height="6"/></g>
<g transform="translate(288,696) scale(4.12)"><circle cx="3" cy="3" r="3"/></g>
<g transform="translate(432,696) scale(4.12)"><path d="M6,6H0v0c0-3.3,2.7-6,6-6h0L5.6,1.3c-0.4,1.1-0.4,2.4,0,3.5L6,6z"/></g>
<g transform="translate(528,696) scale(4.12)"><path d="M6,6H3C1.3,6,0,4.7,0,3V0l6,0V6z"/></g>
<g transform="translate(552,696) scale(4.12)"><path d="M6,6H0V0l3,0c1.7,0,3,1.3,3,3V6z"/></g>
<g transform="translate(720,696) scale(4.12)"><path d="M6,6H0V3c0-1.7,1.3-3,3-3l3,0V6z"/></g>
<g transform="translate(744,696) scale(4.12)"><path d="M6,6H0V0l3,0c1.7,0,3,1.3,3,3V6z"/></g>
<g transform="translate(792,696) scale(4.12)"><rect width="6" height="6"/></g>
<g transform="translate(888,696) scale(4.12)"><rect width="6" height="6"/></g>
<g transform="translate(912,696) scale(4.12)"><path d="M3,6H0V0l6,0v3C6,4.7,4.7,6,3,6z"/></g>
<g transform="translate(48,720) scale(4.12)"><path d="M0,0l0.4,1.3c0.4,1.1,0.4,2.4,0,3.5L0,6c3.3,0,6-2.7,6-6H0z"/></g>
<g transform="translate(96,720) scale(4.12)"><path d="M0,0l0.4,1.3c0.4,1.1,0.4,2.4,0,3.5L0,6c3.3,0,6-2.7,6-6H0z"/></g>
<g transform="translate(168,720) scale(4.12)"><path d="M6,6H3C1.3,6,0,4.7,0,3V0l6,0V6z"/></g>
<g transform="translate(192,720) scale(4.12)"><path d="M0,0v6l1.3-0.4c1.1-0.4,2.4-0.4,3.5,0L6,6C6,2.7,3.3,0,0,0z"/></g>
<g transform="translate(240,720) scale(4.12)"><rect width="6" height="6"/></g>
<g transform="translate(312,720) scale(4.12)"><path d="M6,6H0V3c0-1.7,1.3-3,3-3l3,0V6z"/></g>
<g transform="translate(336,720) scale(4.12)"><rect width="6" height="6"/></g>
<g transform="translate(360,720) scale(4.12)"><path d="M0,0v6l1.3-0.4c1.1-0.4,2.4-0.4,3.5,0L6,6C6,2.7,3.3,0,0,0z"/></g>
<g transform="translate(408,720) scale(4.12)"><path d="M4.7,0.4c-1.1,0.4-2.4,0.4-3.5,0L0,0c0,3.3,2.7,6,6,6V0L4.7,0.4z"/></g>
<g transform="translate(432,720) scale(4.12)"><rect width="6" height="6"/></g>
<g transform="translate(552,720) scale(4.12)"><path d="M0,0l0.4,1.3c0.4,1.1,0.4,2.4,0,3.5L0,6c3.3,0,6-2.7,6-6H0z"/></g>
<g transform="translate(624,720) scale(4.12)"><path d="M4.7,0.4c-1.1,0.4-2.4,0.4-3.5,0L0,0c0,3.3,2.7,6,6,6V0L4.7,0.4z"/></g>
<g transform="translate(648,720) scale(4.12)"><rect width="6" height="6"/></g>
<g transform="translate(672,720) scale(4.12)"><rect width="6" height="6"/></g>
<g transform="translate(696,720) scale(4.12)"><rect width="6" height="6"/></g>
<g transform="translate(720,720) scale(4.12)"><rect width="6" height="6"/></g>
<g transform="translate(744,720) scale(4.12)"><rect width="6" height="6"/></g>
<g transform="translate(768,720) scale(4.12)"><rect width="6" height="6"/></g>
<g transform="translate(792,720) scale(4.12)"><rect width="6" height="6"/></g>
<g transform="translate(816,720) scale(4.12)"><path d="M6,6H0V0l3,0c1.7,0,3,1.3,3,3V6z"/></g>
<g transform="translate(888,720) scale(4.12)"><path d="M0,0l0.4,1.3c0.4,1.1,0.4,2.4,0,3.5L0,6c3.3,0,6-2.7,6-6H0z"/></g>
<g transform="translate(240,744) scale(4.12)"><rect width="6" height="6"/></g>
<g transform="translate(264,744) scale(4.12)"><path d="M0,0v6l1.3-0.4c1.1-0.4,2.4-0.4,3.5,0L6,6C6,2.7,3.3,0,0,0z"/></g>
<g transform="translate(312,744) scale(4.12)"><path d="M6,6H3C1.3,6,0,4.7,0,3V0l6,0V6z"/></g>
<g transform="translate(336,744) scale(4.12)"><rect width="6" height="6"/></g>
<g transform="translate(432,744) scale(4.12)"><path d="M0,0l0.4,1.3c0.4,1.1,0.4,2.4,0,3.5L0,6c3.3,0,6-2.7,6-6H0z"/></g>
<g transform="translate(480,744) scale(4.12)"><path d="M6,6H0v0c0-3.3,2.7-6,6-6h0L5.6,1.3c-0.4,1.1-0.4,2.4,0,3.5L6,6z"/></g>
<g transform="translate(528,744) scale(4.12)"><circle cx="3" cy="3" r="3"/></g>
<g transform="translate(576,744) scale(4.12)"><path d="M6,6H0V3c0-1.7,1.3-3,3-3l3,0V6z"/></g>
<g transform="translate(600,744) scale(4.12)"><path d="M0,0v6l1.3-0.4c1.1-0.4,2.4-0.4,3.5,0L6,6C6,2.7,3.3,0,0,0z"/></g>
<g transform="translate(696,744) scale(4.12)"><rect width="6" height="6"/></g>
<g transform="translate(720,744) scale(4.12)"><rect width="6" height="6"/></g>
<g transform="translate(816,744) scale(4.12)"><rect width="6" height="6"/></g>
<g transform="translate(240,768) scale(4.12)"><rect width="6" height="6"/></g>
<g transform="translate(288,768) scale(4.12)"><circle cx="3" cy="3" r="3"/></g>
<g transform="translate(336,768) scale(4.12)"><path d="M6,6H3C1.3,6,0,4.7,0,3V0l6,0V6z"/></g>
<g transform="translate(360,768) scale(4.12)"><rect width="6" height="6"/></g>
<g transform="translate(384,768) scale(4.12)"><rect width="6" height="6"/></g>
<g transform="translate(408,768) scale(4.12)"><path d="M6,6H0V0l3,0c1.7,0,3,1.3,3,3V6z"/></g>
<g transform="translate(456,768) scale(4.12)"><path d="M4.7,0.4c-1.1,0.4-2.4,0.4-3.5,0L0,0c0,3.3,2.7,6,6,6V0L4.7,0.4z"/></g>
<g transform="translate(480,768) scale(4.12)"><rect width="6" height="6"/></g>
<g transform="translate(576,768) scale(4.12)"><path d="M0,0l0.4,1.3c0.4,1.1,0.4,2.4,0,3.5L0,6c3.3,0,6-2.7,6-6H0z"/></g>
<g transform="translate(648,768) scale(4.12)"><path d="M4.7,0.4c-1.1,0.4-2.4,0.4-3.5,0L0,0c0,3.3,2.7,6,6,6V0L4.7,0.4z"/></g>
<g transform="translate(672,768) scale(4.12)"><rect width="6" height="6"/></g>
<g transform="translate(696,768) scale(4.12)"><rect width="6" height="6"/></g>
<g transform="translate(720,768) scale(4.12)"><rect width="6" height="6"/></g>
<g transform="translate(768,768) scale(4.12)"><circle cx="3" cy="3" r="3"/></g>
<g transform="translate(816,768) scale(4.12)"><rect width="6" height="6"/></g>
<g transform="translate(840,768) scale(4.12)"><path d="M0,0v6l1.3-0.4c1.1-0.4,2.4-0.4,3.5,0L6,6C6,2.7,3.3,0,0,0z"/></g>
<g transform="translate(888,768) scale(4.12)"><path d="M4.7,0.4c-1.1,0.4-2.4,0.4-3.5,0L0,0c0,3.3,2.7,6,6,6V0L4.7,0.4z"/></g>
<g transform="translate(912,768) scale(4.12)"><path d="M6,6H0V0l3,0c1.7,0,3,1.3,3,3V6z"/></g>
<g transform="translate(240,792) scale(4.12)"><rect width="6" height="6"/></g>
<g transform="translate(312,792) scale(4.12)"><circle cx="3" cy="3" r="3"/></g>
<g transform="translate(384,792) scale(4.12)"><rect width="6" height="6"/></g>
<g transform="translate(408,792) scale(4.12)"><path d="M3,6H0V0l6,0v3C6,4.7,4.7,6,3,6z"/></g>
<g transform="translate(480,792) scale(4.12)"><path d="M6,6H3C1.3,6,0,4.7,0,3V0l6,0V6z"/></g>
<g transform="translate(504,792) scale(4.12)"><rect width="6" height="6"/></g>
<g transform="translate(528,792) scale(4.12)"><path d="M6,6H0V0l3,0c1.7,0,3,1.3,3,3V6z"/></g>
<g transform="translate(624,792) scale(4.12)"><path d="M6,6H0v0c0-3.3,2.7-6,6-6h0L5.6,1.3c-0.4,1.1-0.4,2.4,0,3.5L6,6z"/></g>
<g transform="translate(720,792) scale(4.12)"><rect width="6" height="6"/></g>
<g transform="translate(816,792) scale(4.12)"><rect width="6" height="6"/></g>
<g transform="translate(912,792) scale(4.12)"><rect width="6" height="6"/></g>
<g transform="translate(240,816) scale(4.12)"><rect width="6" height="6"/></g>
<g transform="translate(336,816) scale(4.12)"><path d="M6,6H0V3c0-1.7,1.3-3,3-3l3,0V6z"/></g>
<g transform="translate(360,816) scale(4.12)"><rect width="6" height="6"/></g>
<g transform="translate(384,816) scale(4.12)"><path d="M3,6H0V0l6,0v3C6,4.7,4.7,6,3,6z"/></g>
<g transform="translate(456,816) scale(4.12)"><path d="M6,6H0v0c0-3.3,2.7-6,6-6h0L5.6,1.3c-0.4,1.1-0.4,2.4,0,3.5L6,6z"/></g>
<g transform="translate(528,816) scale(4.12)"><path d="M6,6H3C1.3,6,0,4.7,0,3V0l6,0V6z"/></g>
<g transform="translate(552,816) scale(4.12)"><rect width="6" height="6"/></g>
<g transform="translate(576,816) scale(4.12)"><path d="M0,0v6l1.3-0.4c1.1-0.4,2.4-0.4,3.5,0L6,6C6,2.7,3.3,0,0,0z"/></g>
<g transform="translate(624,816) scale(4.12)"><rect width="6" height="6"/></g>
<g transform="translate(648,816) scale(4.12)"><rect width="6" height="6"/></g>
<g transform="translate(672,816) scale(4.12)"><rect width="6" height="6"/></g>
<g transform="translate(696,816) scale(4.12)"><rect width="6" height="6"/></g>
<g transform="translate(720,816) scale(4.12)"><rect width="6" height="6"/></g>
<g transform="translate(744,816) scale(4.12)"><rect width="6" height="6"/></g>
<g transform="translate(768,816) scale(4.12)"><rect width="6" height="6"/></g>
<g transform="translate(792,816) scale(4.12)"><rect width="6" height="6"/></g>
<g transform="translate(816,816) scale(4.12)"><rect width="6" height="6"/></g>
<g transform="translate(864,816) scale(4.12)"><path d="M6,6H0V3c0-1.7,1.3-3,3-3l3,0V6z"/></g>
<g transform="translate(888,816) scale(4.12)"><rect width="6" height="6"/></g>
<g transform="translate(912,816) scale(4.12)"><path d="M3,6H0V0l6,0v3C6,4.7,4.7,6,3,6z"/></g>
<g transform="translate(240,840) scale(4.12)"><rect width="6" height="6"/></g>
<g transform="translate(264,840) scale(4.12)"><rect width="6" height="6"/></g>
<g transform="translate(288,840) scale(4.12)"><rect width="6" height="6"/></g>
<g transform="translate(312,840) scale(4.12)"><rect width="6" height="6"/></g>
<g transform="translate(336,840) scale(4.12)"><rect width="6" height="6"/></g>
<g transform="translate(360,840) scale(4.12)"><rect width="6" height="6"/></g>
<g transform="translate(408,840) scale(4.12)"><circle cx="3" cy="3" r="3"/></g>
<g transform="translate(456,840) scale(4.12)"><rect width="6" height="6"/></g>
<g transform="translate(552,840) scale(4.12)"><path d="M0,0l0.4,1.3c0.4,1.1,0.4,2.4,0,3.5L0,6c3.3,0,6-2.7,6-6H0z"/></g>
<g transform="translate(624,840) scale(4.12)"><path d="M0,0l0.4,1.3c0.4,1.1,0.4,2.4,0,3.5L0,6c3.3,0,6-2.7,6-6H0z"/></g>
<g transform="translate(768,840) scale(4.12)"><path d="M0,0l0.4,1.3c0.4,1.1,0.4,2.4,0,3.5L0,6c3.3,0,6-2.7,6-6H0z"/></g>
<g transform="translate(816,840) scale(4.12)"><path d="M0,0l0.4,1.3c0.4,1.1,0.4,2.4,0,3.5L0,6c3.3,0,6-2.7,6-6H0z"/></g>
<g transform="translate(864,840) scale(4.12)"><path d="M0,0l0.4,1.3c0.4,1.1,0.4,2.4,0,3.5L0,6c3.3,0,6-2.7,6-6H0z"/></g>
<g transform="translate(240,864) scale(4.12)"><rect width="6" height="6"/></g>
<g transform="translate(264,864) scale(4.12)"><rect width="6" height="6"/></g>
<g transform="translate(312,864) scale(4.12)"><path d="M0,0l0.4,1.3c0.4,1.1,0.4,2.4,0,3.5L0,6c3.3,0,6-2.7,6-6H0z"/></g>
<g transform="translate(360,864) scale(4.12)"><path d="M6,6H3C1.3,6,0,4.7,0,3V0l6,0V6z"/></g>
<g transform="translate(384,864) scale(4.12)"><path d="M6,6H0V0l3,0c1.7,0,3,1.3,3,3V6z"/></g>
<g transform="translate(456,864) scale(4.12)"><rect width="6" height="6"/></g>
<g transform="translate(528,864) scale(4.12)"><circle cx="3" cy="3" r="3"/></g>
<g transform="translate(576,864) scale(4.12)"><circle cx="3" cy="3" r="3"/></g>
<g transform="translate(648,864) scale(4.12)"><circle cx="3" cy="3" r="3"/></g>
<g transform="translate(696,864) scale(4.12)"><path d="M6,6H0v0c0-3.3,2.7-6,6-6h0L5.6,1.3c-0.4,1.1-0.4,2.4,0,3.5L6,6z"/></g>
<g transform="translate(744,864) scale(4.12)"><path d="M6,6H0v0c0-3.3,2.7-6,6-6h0L5.6,1.3c-0.4,1.1-0.4,2.4,0,3.5L6,6z"/></g>
<g transform="translate(792,864) scale(4.12)"><circle cx="3" cy="3" r="3"/></g>
<g transform="translate(912,864) scale(4.12)"><path d="M6,6H0v0c0-3.3,2.7-6,6-6h0L5.6,1.3c-0.4,1.1-0.4,2.4,0,3.5L6,6z"/></g>
<g transform="translate(240,888) scale(4.12)"><path d="M6,6H3C1.3,6,0,4.7,0,3V0l6,0V6z"/></g>
<g transform="translate(264,888) scale(4.12)"><rect width="6" height="6"/></g>
<g transform="translate(384,888) scale(4.12)"><rect width="6" height="6"/></g>
<g transform="translate(408,888) scale(4.12)"><rect width="6" height="6"/></g>
<g transform="translate(432,888) scale(4.12)"><rect width="6" height="6"/></g>
<g transform="translate(456,888) scale(4.12)"><rect width="6" height="6"/></g>
<g transform="translate(480,888) scale(4.12)"><path d="M0,0v6l1.3-0.4c1.1-0.4,2.4-0.4,3.5,0L6,6C6,2.7,3.3,0,0,0z"/></g>
<g transform="translate(600,888) scale(4.12)"><circle cx="3" cy="3" r="3"/></g>
<g transform="translate(672,888) scale(4.12)"><path d="M6,6H0V3c0-1.7,1.3-3,3-3l3,0V6z"/></g>
<g transform="translate(696,888) scale(4.12)"><rect width="6" height="6"/></g>
<g transform="translate(720,888) scale(4.12)"><rect width="6" height="6"/></g>
<g transform="translate(744,888) scale(4.12)"><rect width="6" height="6"/></g>
<g transform="translate(768,888) scale(4.12)"><path d="M6,6H0V0l3,0c1.7,0,3,1.3,3,3V6z"/></g>
<g transform="translate(816,888) scale(4.12)"><circle cx="3" cy="3" r="3"/></g>
<g transform="translate(912,888) scale(4.12)"><rect width="6" height="6"/></g>
<g transform="translate(264,912) scale(4.12)"><path d="M0,0l0.4,1.3c0.4,1.1,0.4,2.4,0,3.5L0,6c3.3,0,6-2.7,6-6H0z"/></g>
<g transform="translate(336,912) scale(4.12)"><path d="M4.7,0.4c-1.1,0.4-2.4,0.4-3.5,0L0,0c0,3.3,2.7,6,6,6V0L4.7,0.4z"/></g>
<g transform="translate(360,912) scale(4.12)"><rect width="6" height="6"/></g>
<g transform="translate(384,912) scale(4.12)"><rect width="6" height="6"/></g>
<g transform="translate(408,912) scale(4.12)"><rect width="6" height="6"/></g>
<g transform="translate(432,912) scale(4.12)"><path d="M3,6H0V0l6,0v3C6,4.7,4.7,6,3,6z"/></g>
<g transform="translate(528,912) scale(4.12)"><path d="M4.7,0.4c-1.1,0.4-2.4,0.4-3.5,0L0,0c0,3.3,2.7,6,6,6V0L4.7,0.4z"/></g>
<g transform="translate(552,912) scale(4.12)"><rect width="6" height="6"/></g>
<g transform="translate(576,912) scale(4.12)"><path d="M0,0v6l1.3-0.4c1.1-0.4,2.4-0.4,3.5,0L6,6C6,2.7,3.3,0,0,0z"/></g>
<g transform="translate(672,912) scale(4.12)"><path d="M6,6H3C1.3,6,0,4.7,0,3V0l6,0V6z"/></g>
<g transform="translate(696,912) scale(4.12)"><path d="M3,6H0V0l6,0v3C6,4.7,4.7,6,3,6z"/></g>
<g transform="translate(768,912) scale(4.12)"><path d="M6,6H3C1.3,6,0,4.7,0,3V0l6,0V6z"/></g>
<g transform="translate(792,912) scale(4.12)"><path d="M0,0v6l1.3-0.4c1.1-0.4,2.4-0.4,3.5,0L6,6C6,2.7,3.3,0,0,0z"/></g>
<g transform="translate(840,912) scale(4.12)"><path d="M4.7,0.4c-1.1,0.4-2.4,0.4-3.5,0L0,0c0,3.3,2.7,6,6,6V0L4.7,0.4z"/></g>
<g transform="translate(864,912) scale(4.12)"><rect width="6" height="6"/></g>
<g transform="translate(888,912) scale(4.12)"><rect width="6" height="6"/></g>
<g transform="translate(912,912) scale(4.12)"><path d="M3,6H0V0l6,0v3C6,4.7,4.7,6,3,6z"/></g>
<g transform="translate(48,48)"><g transform="scale(12)"><path d="M0,7L0,7c0,3.9,3.1,7,7,7h0c3.9,0,7-3.1,7-7v0c0-3.9-3.1-7-7-7h0C3.1,0,0,3.1,0,7z M7,12L7,12c-2.8,0-5-2.2-5-5v0 c0-2.8,2.2-5,5-5h0c2.8,0,5,2.2,5,5v0C12,9.8,9.8,12,7,12z"/></g></g>
<g transform="translate(768,48)"><g transform="scale(12)"><path d="M0,7L0,7c0,3.9,3.1,7,7,7h0c3.9,0,7-3.1,7-7v0c0-3.9-3.1-7-7-7h0C3.1,0,0,3.1,0,7z M7,12L7,12c-2.8,0-5-2.2-5-5v0 c0-2.8,2.2-5,5-5h0c2.8,0,5,2.2,5,5v0C12,9.8,9.8,12,7,12z"/></g></g>
<g transform="translate(48,768)"><g transform="scale(12)"><path d="M0,7L0,7c0,3.9,3.1,7,7,7h0c3.9,0,7-3.1,7-7v0c0-3.9-3.1-7-7-7h0C3.1,0,0,3.1,0,7z M7,12L7,12c-2.8,0-5-2.2-5-5v0 c0-2.8,2.2-5,5-5h0c2.8,0,5,2.2,5,5v0C12,9.8,9.8,12,7,12z"/></g></g>
<g transform="translate(96,96)"><g transform="scale(12)"><path d="M6,1.8C5.9,1,5.3,0.4,4.5,0.3C3.9,0.2,3.4,0.5,3,0.9C2.6,0.5,2.1,0.3,1.6,0.3C0.8,0.4,0.1,1,0,1.8 C0,2.3,0.1,2.7,0.3,3l0,0l0,0c0.1,0.1,0.2,0.2,0.3,0.3l1.9,2.2c0.3,0.3,0.7,0.3,0.9,0l1.8-1.9c0.1-0.1,0.3-0.3,0.4-0.5 C5.9,2.8,6.1,2.3,6,1.8z"/></g></g>
<g transform="translate(816,96)"><g transform="scale(12)"><path d="M6,1.8C5.9,1,5.3,0.4,4.5,0.3C3.9,0.2,3.4,0.5,3,0.9C2.6,0.5,2.1,0.3,1.6,0.3C0.8,0.4,0.1,1,0,1.8 C0,2.3,0.1,2.7,0.3,3l0,0l0,0c0.1,0.1,0.2,0.2,0.3,0.3l1.9,2.2c0.3,0.3,0.7,0.3,0.9,0l1.8-1.9c0.1-0.1,0.3-0.3,0.4-0.5 C5.9,2.8,6.1,2.3,6,1.8z"/></g></g>
<g transform="translate(96,816)"><g transform="scale(12)"><path d="M6,1.8C5.9,1,5.3,0.4,4.5,0.3C3.9,0.2,3.4,0.5,3,0.9C2.6,0.5,2.1,0.3,1.6,0.3C0.8,0.4,0.1,1,0,1.8 C0,2.3,0.1,2.7,0.3,3l0,0l0,0c0.1,0.1,0.2,0.2,0.3,0.3l1.9,2.2c0.3,0.3,0.7,0.3,0.9,0l1.8-1.9c0.1-0.1,0.3-0.3,0.4-0.5 C5.9,2.8,6.1,2.3,6,1.8z"/></g></g>
</g></svg>
